<?xml version="1.0" encoding="UTF-8" standalone="no"?>
<svg
   width="217"
   height="62"
   viewBox="0 0 217 62"
   fill="none"
   version="1.1"
   id="svg38"
   sodipodi:docname="aulogo.svg"
   inkscape:version="1.4 (e7c3feb100, 2024-10-09)"
   xmlns:inkscape="http://www.inkscape.org/namespaces/inkscape"
   xmlns:sodipodi="http://sodipodi.sourceforge.net/DTD/sodipodi-0.dtd"
   xmlns="http://www.w3.org/2000/svg"
   xmlns:svg="http://www.w3.org/2000/svg">
  <sodipodi:namedview
     id="namedview38"
     pagecolor="#ffffff"
     bordercolor="#000000"
     borderopacity="0.25"
     inkscape:showpageshadow="2"
     inkscape:pageopacity="0.0"
     inkscape:pagecheckerboard="0"
     inkscape:deskcolor="#d1d1d1"
     inkscape:zoom="3.9314485"
     inkscape:cx="96.147768"
     inkscape:cy="36.373362"
     inkscape:window-width="2560"
     inkscape:window-height="1371"
     inkscape:window-x="0"
     inkscape:window-y="0"
     inkscape:window-maximized="1"
     inkscape:current-layer="svg38" />
  <g
     clip-path="url(#clip0_2_78)"
     id="g38"
     style="fill:#000000;fill-opacity:1"
     transform="matrix(1.3200217,0,0,1.3200217,-29.101996,-7.8395492)">
    <path
       d="M 23.378,45.3875 H 34.6767 L 55.3887,24.7088 V 13.3781 Z"
       fill="#333740"
       id="path1"
       style="fill:#000000;fill-opacity:1" />
    <mask
       id="mask0_2_78"
       maskUnits="userSpaceOnUse"
       x="23"
       y="13"
       width="171"
       height="36">
      <path
         d="m 23,13.0007 h 171 v 35.808 H 23 Z"
         fill="#ffffff"
         id="path2" />
    </mask>
    <g
       mask="url(#mask0_2_78)"
       id="g3"
       style="fill:#000000;fill-opacity:1">
      <path
         d="m 87.3975,29.3823 c 0,2.22 -0.416,4.3 -1.248,6.2426 -0.8334,1.9414 -1.9747,3.632 -3.4254,5.072 -1.452,1.4414 -3.148,2.5827 -5.0893,3.4254 -1.9427,0.844 -4.0227,1.2653 -6.2427,1.2653 -1.472,0 -2.892,-0.192 -4.2573,-0.5773 -1.3653,-0.384 -2.64,-0.9227 -3.8253,-1.616 -1.184,-0.6934 -2.2614,-1.5254 -3.232,-2.4974 -0.972,-0.9693 -1.804,-2.048 -2.4974,-3.232 -0.6933,-1.1853 -1.232,-2.4586 -1.616,-3.8253 -0.384,-1.3653 -0.576,-2.7853 -0.576,-4.2573 h 8.0027 c 0,1.088 0.212,2.1173 0.64,3.0893 0.4267,0.9707 1.0027,1.8187 1.728,2.544 0.7253,0.7267 1.5733,1.3027 2.5453,1.7293 0.9707,0.4267 2,0.64 3.088,0.64 1.1094,0 2.1507,-0.2133 3.1214,-0.64 0.9706,-0.4266 1.82,-1.0026 2.5453,-1.7293 0.7253,-0.7253 1.296,-1.5733 1.712,-2.544 0.416,-0.972 0.624,-2.0013 0.624,-3.0893 z"
         fill="#333740"
         id="path3"
         style="fill:#000000;fill-opacity:1" />
    </g>
    <mask
       id="mask1_2_78"
       maskUnits="userSpaceOnUse"
       x="23"
       y="13"
       width="171"
       height="36">
      <path
         d="m 23,13.0007 h 171 v 35.808 H 23 Z"
         fill="#ffffff"
         id="path4" />
    </mask>
    <g
       mask="url(#mask1_2_78)"
       id="g5"
       style="fill:#000000;fill-opacity:1">
      <path
         d="m 108.81,25.6524 -2.121,-4.564 -1.975,4.564 z m -2.136,-7.0227 5.048,10.7534 h -1.187 l -1.257,-2.7067 h -5.003 l -1.17,2.7067 h -1.186 z"
         fill="#333740"
         id="path5"
         style="fill:#000000;fill-opacity:1" />
    </g>
    <mask
       id="mask2_2_78"
       maskUnits="userSpaceOnUse"
       x="23"
       y="13"
       width="171"
       height="36">
      <path
         d="m 23,13.0007 h 171 v 35.808 H 23 Z"
         fill="#ffffff"
         id="path6" />
    </mask>
    <g
       mask="url(#mask2_2_78)"
       id="g7"
       style="fill:#000000;fill-opacity:1">
      <path
         d="m 119.131,25.6524 -2.122,-4.564 -1.974,4.564 z m -2.136,-7.0227 5.048,10.7534 h -1.187 l -1.257,-2.7067 h -5.003 l -1.171,2.7067 h -1.185 z"
         fill="#333740"
         id="path7"
         style="fill:#000000;fill-opacity:1" />
    </g>
    <mask
       id="mask3_2_78"
       maskUnits="userSpaceOnUse"
       x="23"
       y="13"
       width="171"
       height="36">
      <path
         d="m 23,13.0007 h 171 v 35.808 H 23 Z"
         fill="#ffffff"
         id="path8" />
    </mask>
    <g
       mask="url(#mask3_2_78)"
       id="g9"
       style="fill:#000000;fill-opacity:1">
      <path
         d="m 126.578,24.0431 c 0.361,0 0.683,-0.052 0.965,-0.1534 0.283,-0.1026 0.518,-0.2413 0.703,-0.4173 0.185,-0.176 0.327,-0.38 0.424,-0.6147 0.097,-0.2333 0.147,-0.4826 0.147,-0.7453 0,-0.264 -0.05,-0.5147 -0.147,-0.7533 -0.097,-0.2387 -0.239,-0.4467 -0.424,-0.6214 -0.185,-0.176 -0.42,-0.316 -0.703,-0.4173 -0.282,-0.1027 -0.604,-0.1547 -0.965,-0.1547 h -2.385 v 3.8774 z m -3.481,-4.9014 h 3.554 c 0.507,0 0.963,0.0787 1.368,0.2347 0.404,0.156 0.746,0.368 1.024,0.636 0.278,0.268 0.492,0.584 0.644,0.944 0.151,0.3613 0.226,0.7467 0.226,1.156 0,0.38 -0.063,0.7387 -0.19,1.0747 -0.126,0.336 -0.312,0.6333 -0.556,0.892 -0.244,0.2586 -0.538,0.4733 -0.885,0.644 -0.345,0.1706 -0.739,0.2813 -1.177,0.3293 l 2.954,4.3307 h -1.33 l -2.927,-4.316 h -1.609 v 4.316 h -1.096 z"
         fill="#333740"
         id="path9"
         style="fill:#000000;fill-opacity:1" />
    </g>
    <mask
       id="mask4_2_78"
       maskUnits="userSpaceOnUse"
       x="23"
       y="13"
       width="171"
       height="36">
      <path
         d="m 23,13.0007 h 171 v 35.808 H 23 Z"
         fill="#ffffff"
         id="path10" />
    </mask>
    <g
       mask="url(#mask4_2_78)"
       id="g11"
       style="fill:#000000;fill-opacity:1">
      <path
         d="m 131.689,19.142 h 1.097 v 4.3893 h 5.412 V 19.142 h 1.099 v 10.2413 h -1.099 v -4.828 h -5.412 v 4.828 h -1.097 z"
         fill="#333740"
         id="path11"
         style="fill:#000000;fill-opacity:1" />
    </g>
    <mask
       id="mask5_2_78"
       maskUnits="userSpaceOnUse"
       x="23"
       y="13"
       width="171"
       height="36">
      <path
         d="m 23,13.0007 h 171 v 35.808 H 23 Z"
         fill="#ffffff"
         id="path12" />
    </mask>
    <g
       mask="url(#mask5_2_78)"
       id="g13"
       style="fill:#000000;fill-opacity:1">
      <path
         d="m 141.486,19.142 h 1.112 v 6.54 c 0,0.5453 0.079,1.004 0.234,1.3747 0.156,0.3706 0.358,0.668 0.608,0.892 0.248,0.2253 0.53,0.3866 0.848,0.4826 0.317,0.0987 0.637,0.1467 0.958,0.1467 0.322,0 0.642,-0.048 0.959,-0.1467 0.316,-0.096 0.599,-0.2573 0.848,-0.4826 0.248,-0.224 0.451,-0.5214 0.607,-0.892 0.156,-0.3707 0.234,-0.8294 0.234,-1.3747 v -6.54 h 1.112 v 6.7 c 0,0.6253 -0.108,1.1707 -0.322,1.6387 -0.215,0.468 -0.5,0.8613 -0.856,1.1786 -0.356,0.316 -0.759,0.5534 -1.207,0.7094 -0.448,0.156 -0.907,0.2333 -1.375,0.2333 -0.468,0 -0.926,-0.0773 -1.374,-0.2333 -0.45,-0.156 -0.852,-0.3934 -1.208,-0.7094 -0.356,-0.3173 -0.642,-0.7106 -0.856,-1.1786 -0.214,-0.468 -0.322,-1.0134 -0.322,-1.6387 z"
         fill="#333740"
         id="path13"
         style="fill:#000000;fill-opacity:1" />
    </g>
    <mask
       id="mask6_2_78"
       maskUnits="userSpaceOnUse"
       x="23"
       y="13"
       width="171"
       height="36">
      <path
         d="m 23,13.0007 h 171 v 35.808 H 23 Z"
         fill="#ffffff"
         id="path14" />
    </mask>
    <g
       mask="url(#mask6_2_78)"
       id="g15"
       style="fill:#000000;fill-opacity:1">
      <path
         d="m 151.67,26.3835 c 0,0.312 0.051,0.6026 0.153,0.8706 0.103,0.268 0.247,0.5 0.432,0.6947 0.186,0.196 0.407,0.3493 0.666,0.4613 0.258,0.112 0.549,0.168 0.87,0.168 0.322,0 0.616,-0.052 0.886,-0.1533 0.268,-0.1027 0.498,-0.2467 0.694,-0.432 0.195,-0.1853 0.346,-0.4027 0.454,-0.6507 0.106,-0.2493 0.161,-0.5186 0.161,-0.812 0,-0.2733 -0.059,-0.512 -0.176,-0.7173 -0.117,-0.2053 -0.273,-0.3827 -0.468,-0.5333 -0.196,-0.1507 -0.421,-0.288 -0.68,-0.4094 -0.259,-0.1226 -0.524,-0.236 -0.797,-0.344 -0.382,-0.1466 -0.747,-0.2946 -1.098,-0.4466 -0.35,-0.1507 -0.661,-0.3347 -0.929,-0.548 -0.268,-0.2147 -0.485,-0.4707 -0.651,-0.768 -0.166,-0.2974 -0.249,-0.676 -0.249,-1.1347 0,-0.38 0.071,-0.736 0.212,-1.068 0.141,-0.3307 0.337,-0.6187 0.585,-0.8627 0.25,-0.244 0.548,-0.4333 0.9,-0.5706 0.351,-0.136 0.736,-0.2054 1.156,-0.2054 0.43,0 0.822,0.0734 1.178,0.22 0.356,0.1467 0.661,0.3467 0.914,0.6 0.254,0.2534 0.448,0.5534 0.586,0.9 0.136,0.3454 0.204,0.724 0.204,1.1334 h -1.126 c 0,-0.556 -0.164,-1 -0.49,-1.332 -0.327,-0.3307 -0.748,-0.4974 -1.266,-0.4974 -0.517,0 -0.938,0.1547 -1.265,0.4614 -0.328,0.308 -0.491,0.7146 -0.491,1.2213 0,0.2733 0.064,0.5053 0.191,0.696 0.127,0.1893 0.292,0.356 0.497,0.4973 0.204,0.1414 0.442,0.268 0.71,0.38 0.268,0.112 0.548,0.2267 0.841,0.344 0.371,0.1454 0.724,0.2974 1.061,0.4534 0.336,0.156 0.634,0.344 0.891,0.5626 0.259,0.22 0.467,0.4854 0.623,0.7974 0.156,0.312 0.234,0.7026 0.234,1.1706 0,0.4587 -0.085,0.876 -0.256,1.2507 -0.172,0.376 -0.405,0.7 -0.702,0.9733 -0.298,0.272 -0.647,0.4827 -1.047,0.6294 -0.4,0.1453 -0.828,0.2186 -1.287,0.2186 -0.458,0 -0.882,-0.08 -1.273,-0.2413 -0.389,-0.1613 -0.729,-0.3853 -1.016,-0.672 -0.288,-0.288 -0.515,-0.628 -0.681,-1.0173 -0.166,-0.3907 -0.248,-0.8187 -0.248,-1.288 z"
         fill="#333740"
         id="path15"
         style="fill:#000000;fill-opacity:1" />
    </g>
    <mask
       id="mask7_2_78"
       maskUnits="userSpaceOnUse"
       x="23"
       y="13"
       width="171"
       height="36">
      <path
         d="m 23,13.0007 h 171 v 35.808 H 23 Z"
         fill="#ffffff"
         id="path16" />
    </mask>
    <g
       mask="url(#mask7_2_78)"
       id="g17"
       style="fill:#000000;fill-opacity:1">
      <path
         d="m 102.914,35.0437 h 1.112 v 6.54 c 0,0.5454 0.079,1.004 0.233,1.3747 0.156,0.3707 0.359,0.668 0.608,0.892 0.248,0.2253 0.531,0.3867 0.848,0.4827 0.318,0.0986 0.638,0.1466 0.959,0.1466 0.321,0 0.641,-0.048 0.959,-0.1466 0.316,-0.096 0.598,-0.2574 0.848,-0.4827 0.248,-0.224 0.45,-0.5213 0.606,-0.892 0.156,-0.3707 0.235,-0.8293 0.235,-1.3747 v -6.54 h 1.112 v 6.7 c 0,0.6254 -0.108,1.1707 -0.323,1.6387 -0.214,0.468 -0.5,0.8613 -0.856,1.1787 -0.356,0.316 -0.758,0.5533 -1.206,0.7093 -0.448,0.156 -0.907,0.2333 -1.375,0.2333 -0.468,0 -0.927,-0.0773 -1.375,-0.2333 -0.449,-0.156 -0.852,-0.3933 -1.208,-0.7093 -0.356,-0.3174 -0.641,-0.7107 -0.856,-1.1787 -0.213,-0.468 -0.321,-1.0133 -0.321,-1.6387 z"
         fill="#333740"
         id="path17"
         style="fill:#000000;fill-opacity:1" />
    </g>
    <mask
       id="mask8_2_78"
       maskUnits="userSpaceOnUse"
       x="23"
       y="13"
       width="171"
       height="36">
      <path
         d="m 23,13.0007 h 171 v 35.808 H 23 Z"
         fill="#ffffff"
         id="path18" />
    </mask>
    <g
       mask="url(#mask8_2_78)"
       id="g19"
       style="fill:#000000;fill-opacity:1">
      <path
         d="m 112.763,34.6777 7.153,8.208 v -7.8426 h 1.098 v 10.6066 l -7.154,-8.1773 v 7.812 h -1.097 z"
         fill="#333740"
         id="path19"
         style="fill:#000000;fill-opacity:1" />
    </g>
    <mask
       id="mask9_2_78"
       maskUnits="userSpaceOnUse"
       x="23"
       y="13"
       width="171"
       height="36">
      <path
         d="m 23,13.0007 h 171 v 35.808 H 23 Z"
         fill="#ffffff"
         id="path20" />
    </mask>
    <g
       mask="url(#mask9_2_78)"
       id="g21"
       style="fill:#000000;fill-opacity:1">
      <path
         d="m 123.435,35.0433 h 1.097 v 10.2414 h -1.097 z"
         fill="#333740"
         id="path21"
         style="fill:#000000;fill-opacity:1" />
    </g>
    <mask
       id="mask10_2_78"
       maskUnits="userSpaceOnUse"
       x="23"
       y="13"
       width="171"
       height="36">
      <path
         d="m 23,13.0007 h 171 v 35.808 H 23 Z"
         fill="#ffffff"
         id="path22" />
    </mask>
    <g
       mask="url(#mask10_2_78)"
       id="g23"
       style="fill:#000000;fill-opacity:1">
      <path
         d="m 125.829,35.0437 h 1.199 l 3.395,8.0614 3.16,-8.0614 h 1.17 l -4.316,10.752 z"
         fill="#333740"
         id="path23"
         style="fill:#000000;fill-opacity:1" />
    </g>
    <mask
       id="mask11_2_78"
       maskUnits="userSpaceOnUse"
       x="23"
       y="13"
       width="171"
       height="36">
      <path
         d="m 23,13.0007 h 171 v 35.808 H 23 Z"
         fill="#ffffff"
         id="path24" />
    </mask>
    <g
       mask="url(#mask11_2_78)"
       id="g25"
       style="fill:#000000;fill-opacity:1">
      <path
         d="m 136.007,35.0437 h 6.144 v 1.024 h -5.046 v 3.3654 h 4.608 v 1.024 h -4.608 v 3.804 h 5.046 v 1.024 h -6.144 z"
         fill="#333740"
         id="path25"
         style="fill:#000000;fill-opacity:1" />
    </g>
    <mask
       id="mask12_2_78"
       maskUnits="userSpaceOnUse"
       x="23"
       y="13"
       width="171"
       height="36">
      <path
         d="m 23,13.0007 h 171 v 35.808 H 23 Z"
         fill="#ffffff"
         id="path26" />
    </mask>
    <g
       mask="url(#mask12_2_78)"
       id="g27"
       style="fill:#000000;fill-opacity:1">
      <path
         d="m 147.424,39.9447 c 0.361,0 0.683,-0.052 0.965,-0.1534 0.283,-0.1026 0.518,-0.2413 0.703,-0.4173 0.185,-0.176 0.327,-0.38 0.424,-0.6147 0.097,-0.2333 0.147,-0.4826 0.147,-0.7453 0,-0.264 -0.05,-0.5147 -0.147,-0.7533 -0.097,-0.2387 -0.239,-0.4467 -0.424,-0.6214 -0.185,-0.176 -0.42,-0.316 -0.703,-0.4173 -0.282,-0.1027 -0.604,-0.1547 -0.965,-0.1547 h -2.385 v 3.8774 z m -3.481,-4.9014 h 3.554 c 0.507,0 0.963,0.0787 1.368,0.2347 0.404,0.156 0.746,0.368 1.024,0.636 0.278,0.268 0.492,0.584 0.644,0.944 0.151,0.3613 0.226,0.7467 0.226,1.156 0,0.38 -0.063,0.7387 -0.19,1.0747 -0.126,0.336 -0.312,0.6333 -0.556,0.892 -0.244,0.2586 -0.538,0.4733 -0.885,0.644 -0.345,0.1706 -0.739,0.2813 -1.177,0.3293 l 2.954,4.3307 h -1.33 l -2.927,-4.316 h -1.609 v 4.316 h -1.096 z"
         fill="#333740"
         id="path27"
         style="fill:#000000;fill-opacity:1" />
    </g>
    <mask
       id="mask13_2_78"
       maskUnits="userSpaceOnUse"
       x="23"
       y="13"
       width="171"
       height="36">
      <path
         d="m 23,13.0007 h 171 v 35.808 H 23 Z"
         fill="#ffffff"
         id="path28" />
    </mask>
    <g
       mask="url(#mask13_2_78)"
       id="g29"
       style="fill:#000000;fill-opacity:1">
      <path
         d="m 153.135,42.2852 c 0,0.312 0.051,0.6027 0.154,0.8707 0.102,0.268 0.246,0.5 0.432,0.6946 0.185,0.196 0.406,0.3494 0.665,0.4614 0.259,0.112 0.549,0.168 0.871,0.168 0.321,0 0.616,-0.052 0.885,-0.1534 0.268,-0.1026 0.499,-0.2466 0.695,-0.432 0.194,-0.1853 0.345,-0.4026 0.453,-0.6506 0.107,-0.2494 0.161,-0.5187 0.161,-0.812 0,-0.2734 -0.058,-0.512 -0.176,-0.7174 -0.117,-0.2053 -0.273,-0.3826 -0.468,-0.5333 -0.196,-0.1507 -0.421,-0.288 -0.68,-0.4093 -0.258,-0.1227 -0.524,-0.236 -0.797,-0.344 -0.381,-0.1467 -0.747,-0.2947 -1.097,-0.4467 -0.351,-0.1507 -0.662,-0.3347 -0.93,-0.548 -0.268,-0.2147 -0.485,-0.4707 -0.65,-0.768 -0.167,-0.2973 -0.25,-0.676 -0.25,-1.1347 0,-0.38 0.071,-0.736 0.212,-1.068 0.142,-0.3306 0.338,-0.6186 0.586,-0.8626 0.249,-0.244 0.548,-0.4334 0.9,-0.5707 0.35,-0.136 0.736,-0.2053 1.156,-0.2053 0.429,0 0.821,0.0733 1.177,0.22 0.356,0.1466 0.661,0.3466 0.915,0.6 0.253,0.2533 0.448,0.5533 0.585,0.9 0.136,0.3453 0.204,0.724 0.204,1.1333 h -1.125 c 0,-0.556 -0.164,-1 -0.491,-1.332 -0.327,-0.3307 -0.748,-0.4973 -1.265,-0.4973 -0.518,0 -0.939,0.1546 -1.266,0.4613 -0.328,0.308 -0.49,0.7147 -0.49,1.2213 0,0.2734 0.064,0.5054 0.19,0.696 0.127,0.1894 0.292,0.356 0.498,0.4974 0.204,0.1413 0.441,0.268 0.709,0.38 0.268,0.112 0.548,0.2266 0.841,0.344 0.371,0.1453 0.724,0.2973 1.062,0.4533 0.336,0.156 0.633,0.344 0.89,0.5627 0.259,0.22 0.467,0.4853 0.623,0.7973 0.156,0.312 0.235,0.7027 0.235,1.1707 0,0.4586 -0.086,0.876 -0.256,1.2506 -0.172,0.376 -0.406,0.7 -0.703,0.9734 -0.297,0.272 -0.647,0.4826 -1.047,0.6293 -0.4,0.1453 -0.828,0.2187 -1.286,0.2187 -0.459,0 -0.883,-0.08 -1.274,-0.2414 -0.389,-0.1613 -0.729,-0.3853 -1.016,-0.672 -0.288,-0.288 -0.514,-0.628 -0.681,-1.0173 -0.165,-0.3907 -0.248,-0.8187 -0.248,-1.288 z"
         fill="#333740"
         id="path29"
         style="fill:#000000;fill-opacity:1" />
    </g>
    <mask
       id="mask14_2_78"
       maskUnits="userSpaceOnUse"
       x="23"
       y="13"
       width="171"
       height="36">
      <path
         d="m 23,13.0007 h 171 v 35.808 H 23 Z"
         fill="#ffffff"
         id="path30" />
    </mask>
    <g
       mask="url(#mask14_2_78)"
       id="g31"
       style="fill:#000000;fill-opacity:1">
      <path
         d="m 160.449,35.0433 h 1.098 v 10.2414 h -1.098 z"
         fill="#333740"
         id="path31"
         style="fill:#000000;fill-opacity:1" />
    </g>
    <mask
       id="mask15_2_78"
       maskUnits="userSpaceOnUse"
       x="23"
       y="13"
       width="171"
       height="36">
      <path
         d="m 23,13.0007 h 171 v 35.808 H 23 Z"
         fill="#ffffff"
         id="path32" />
    </mask>
    <g
       mask="url(#mask15_2_78)"
       id="g33"
       style="fill:#000000;fill-opacity:1">
      <path
         d="m 165.843,36.0677 h -2.999 v -1.024 h 7.095 v 1.024 h -2.999 v 9.2174 h -1.097 z"
         fill="#333740"
         id="path33"
         style="fill:#000000;fill-opacity:1" />
    </g>
    <mask
       id="mask16_2_78"
       maskUnits="userSpaceOnUse"
       x="23"
       y="13"
       width="171"
       height="36">
      <path
         d="m 23,13.0007 h 171 v 35.808 H 23 Z"
         fill="#ffffff"
         id="path34" />
    </mask>
    <g
       mask="url(#mask16_2_78)"
       id="g35"
       style="fill:#000000;fill-opacity:1">
      <path
         d="m 171.201,35.0437 h 6.144 v 1.024 h -5.047 v 3.3654 h 4.608 v 1.024 h -4.608 v 3.804 h 5.047 v 1.024 h -6.144 z"
         fill="#333740"
         id="path35"
         style="fill:#000000;fill-opacity:1" />
    </g>
    <mask
       id="mask17_2_78"
       maskUnits="userSpaceOnUse"
       x="23"
       y="13"
       width="171"
       height="36">
      <path
         d="m 23,13.0007 h 171 v 35.808 H 23 Z"
         fill="#ffffff"
         id="path36" />
    </mask>
    <g
       mask="url(#mask17_2_78)"
       id="g37"
       style="fill:#000000;fill-opacity:1">
      <path
         d="m 181.425,36.0677 h -2.999 v -1.024 h 7.095 v 1.024 h -2.999 v 9.2174 h -1.097 z"
         fill="#333740"
         id="path37"
         style="fill:#000000;fill-opacity:1" />
    </g>
  </g>
  <defs
     id="defs38">
    <clipPath
       id="clip0_2_78">
      <rect
         width="171"
         height="35.8087"
         fill="white"
         transform="translate(23 13)"
         id="rect38" />
    </clipPath>
  </defs>
</svg>
