<?xml version="1.0" encoding="UTF-8" standalone="no"?>
<!-- Created with Inkscape (http://www.inkscape.org/) -->

<svg
   width="71.475143"
   height="50.102581"
   viewBox="0 0 18.911131 13.256308"
   version="1.1"
   id="svg1"
   xml:space="preserve"
   xmlns="http://www.w3.org/2000/svg"
   xmlns:svg="http://www.w3.org/2000/svg"><defs
     id="defs1" /><g
     id="layer1"
     transform="translate(-3.6413089,-1.0447625)"><g
       style="clip-rule:evenodd;fill-rule:evenodd;stroke-linejoin:round;stroke-miterlimit:2"
       id="g1"
       transform="matrix(0.26458333,0,0,0.26458333,-18.062176,-29.56282)"><g
         id="g15"
         transform="matrix(0.32848997,0,0,0.32848997,69.842271,93.487226)">
        
        <path
   d="m 254.686,207.959 c -0.22,0.884 -0.974,1.287 -1.652,1.696 -4.764,2.872 -10.005,4.675 -15.149,6.69 -0.308,0.12 -0.818,0.133 -1.125,0.014 -0.913,-0.351 -1.527,-0.813 -1.968,0.767 -0.397,1.415 -3.417,1.112 -4.165,-0.359 -1.179,-2.316 -2.254,-4.684 -3.423,-7.006 -0.593,-1.176 -1.379,-2.079 -2.774,-2.561 -0.82,-0.283 -0.979,-1.538 -1.085,-2.469 -0.075,-0.66 -0.189,-1.328 0.702,-1.764 2.775,-1.357 5.488,-2.84 8.238,-4.249 1.839,-0.941 2.304,-0.808 3.432,0.97 1.02,1.609 1.635,3.407 2.351,5.159 0.388,0.95 0.842,1.879 1.339,2.777 0.335,0.604 0.724,1.353 1.597,1.104 0.804,-0.229 1.467,-0.744 1.59,-1.673 0.07,-0.536 0.103,-1.081 0.104,-1.622 0.009,-3.428 0.025,-6.856 -0.003,-10.284 -0.018,-2.155 -0.601,-2.582 -2.583,-1.803 -2.724,1.071 -5.395,2.271 -8.111,3.36 -2.698,1.081 -4.251,0.555 -5.685,-1.995 -2.331,-4.146 -3.021,-8.706 -2.709,-13.495 0.137,-2.093 0.101,-4.193 -0.073,-6.284 -0.122,-1.455 0.366,-2.402 1.458,-3.14 4.074,-2.755 8.641,-4.5 13.115,-6.437 0.943,-0.407 1.495,0.4 2.385,0.692 -0.087,-2.511 1.979,-2.435 3.531,-2.815 1.264,-0.31 1.911,0.543 2.459,1.443 0.995,1.633 1.991,3.271 2.894,4.956 0.636,1.191 1.387,2.106 2.73,2.591 0.997,0.362 0.984,1.559 1.137,2.47 0.12,0.711 0.169,1.4 -0.792,1.859 -2.787,1.33 -5.494,2.829 -8.248,4.229 -1.637,0.833 -2.346,0.608 -3.324,-0.989 -0.997,-1.627 -1.46,-3.491 -2.28,-5.194 -0.4,-0.832 -0.63,-2.196 -1.817,-1.977 -1.287,0.237 -1.031,1.592 -1.036,2.592 -0.019,3.646 -0.018,7.292 -0.002,10.938 0.006,1.578 0.253,1.745 1.723,1.126 2.946,-1.239 5.854,-2.566 8.82,-3.754 2.74,-1.096 4.22,-0.551 5.729,2.006 1.423,2.409 2.196,5.052 2.613,7.807 z"
   style="fill:#090905;fill-rule:nonzero"
   id="path1" />
        <path
   d="m 201.016,118.789 c 0,-4.68 0.015,-9.357 -0.013,-14.037 -0.005,-0.807 -0.158,-1.619 -0.298,-2.42 -0.647,-3.685 -3.167,-3.815 -5.857,-3.123 -0.858,0.22 -0.55,0.965 -0.551,1.503 -0.02,6.697 -0.012,13.393 -0.012,20.089 0,2.449 0.026,4.899 -0.01,7.347 -0.026,1.907 0.495,3.324 2.492,4.081 1.014,0.385 1.035,1.687 1.198,2.677 0.188,1.133 -0.041,2.025 -2.151,2.538 -2.072,0.505 -3.933,1.622 -5.481,3.089 -1.279,1.213 -2.008,1.333 -2.943,0.779 -3.31,-1.962 -5.372,-4.674 -5.308,-8.696 0.019,-1.306 0,-2.614 0.005,-3.919 0.001,-0.485 -0.103,-1.002 0.236,-1.414 0.943,-1.148 1.116,-2.335 0.302,-3.635 -0.64,-1.019 -0.543,-2.172 -0.545,-3.311 -0.007,-6.042 0.013,-12.084 -0.069,-18.125 -0.032,-2.258 -0.829,-4.046 -3.326,-4.8 -0.877,-0.264 -0.958,-1.58 -1.04,-2.515 -0.068,-0.779 -0.341,-1.636 1.138,-2.129 1.482,-0.495 2.943,-1.068 4.267,-1.899 3.393,-2.132 4.035,-3.569 5.746,-2.982 2.063,0.709 3.723,1.959 4.523,3.949 0.504,1.253 0.931,0.894 1.694,0.456 2.493,-1.432 4.999,-2.836 7.617,-4.042 1.592,-0.735 3.039,-0.587 4.48,0.295 0.14,0.085 0.37,0.147 0.402,0.262 0.657,2.456 3.529,3.17 4.282,5.658 0.724,2.392 1.583,4.687 1.564,7.256 -0.06,8.601 -0.023,17.201 -0.021,25.802 0,2.479 0.611,3.535 2.951,4.203 1.52,0.433 1.015,1.704 1.329,2.558 0.329,0.894 0.301,2.03 -1.356,2.611 -2.594,0.909 -4.967,2.324 -7.154,3.99 -1.121,0.854 -1.938,0.918 -2.908,0.312 -3.219,-2.012 -5.119,-4.75 -5.075,-8.691 0.052,-4.571 0.012,-9.144 0.012,-13.717 h -0.507"
   style="fill:#090905;fill-rule:nonzero"
   id="path2" />
        <path
   d="m 57.994,127.595 c 2.443,0.115 4.116,0.477 5.621,1.977 1.724,1.719 4.271,1.697 6.593,1.927 1.025,0.102 2.072,0.005 3.093,0.13 0.622,0.077 1.52,-0.496 1.84,0.469 0.455,1.376 0.669,2.807 0.361,4.257 -0.028,0.132 -0.346,0.226 -0.544,0.299 -3.904,1.463 -7.808,2.928 -11.716,4.38 -3.025,1.124 -5.736,0.277 -8.047,-1.666 -4.893,-4.111 -7.677,-9.369 -7.724,-15.842 -0.071,-9.846 -0.023,-19.692 -0.007,-29.539 0.001,-0.652 -0.317,-1.448 0.557,-1.866 0.189,-0.09 0.29,-0.181 0.165,-0.468 -1.374,-3.158 -0.61,-6.491 -0.701,-9.745 -0.128,-4.52 -0.039,-4.541 4.162,-6.212 5.437,-2.163 10.896,-4.272 16.516,-5.924 2.286,-0.671 2.579,-0.555 3.302,1.716 0.383,1.205 1.654,2.613 -0.479,3.774 1.678,0.247 1.882,1.545 2.263,2.669 0.554,1.633 1.042,3.289 1.553,4.936 0.527,1.702 1.667,2.669 3.455,2.675 1.66,0.006 1.115,1.507 1.513,2.275 0.286,0.552 0.486,1.641 -0.676,2.166 -3.358,1.518 -6.662,3.153 -10.002,4.71 -1.802,0.84 -2.404,0.616 -3.285,-1.229 -1.167,-2.445 -1.907,-5.043 -2.676,-7.632 -0.4,-1.344 -0.846,-2.681 -1.39,-3.97 -0.243,-0.574 -0.397,-1.496 -1.407,-1.263 -0.962,0.222 -0.784,1.029 -0.784,1.719 -0.003,4.569 -0.002,9.139 -0.002,13.709 0,7.832 -0.002,15.666 0.003,23.5 10e-4,0.815 -0.068,1.652 0.089,2.441 0.4,1.998 0.486,3.888 -1.646,5.627 z"
   style="fill:#090905;fill-rule:nonzero"
   id="path3" />
        <path
   d="m 112.333,168.35 c 2.196,-1.453 4.236,-2.883 6.354,-4.184 2.435,-1.497 4.297,-1.316 6.306,0.723 3.081,3.123 4.817,6.903 5.035,11.322 0.037,0.76 0.005,1.523 0.005,2.286 0,2.529 -1.877,4.116 -4.403,3.482 -1.315,-0.329 -1.723,0.038 -1.935,1.238 -0.154,0.868 -2.617,2.95 -3.305,2.721 -0.888,-0.294 -1.623,-0.898 -2.035,-1.902 -0.814,-1.978 -0.389,-4.065 -0.716,-6.081 -0.328,-2.034 -2.188,-3.435 -4.252,-3.103 -0.711,0.114 -0.542,0.553 -0.545,0.94 -0.017,1.849 -0.009,3.699 -0.009,5.548 0,7.344 0.018,14.688 -0.01,22.033 -0.008,2 0.388,3.544 2.576,4.348 0.874,0.322 1.093,1.646 1.14,2.712 0.038,0.849 -0.031,1.513 -0.952,1.998 -2.592,1.364 -5.128,2.834 -7.664,4.299 -0.605,0.35 -1.115,0.52 -1.785,0.139 -3.402,-1.933 -5.525,-4.672 -5.55,-8.73 -0.026,-4.079 0.035,-8.16 -0.023,-12.239 -0.03,-2.083 -0.029,-4.156 1.021,-6.008 0.605,-1.068 -0.249,-1.772 -0.532,-2.483 -0.403,-1.012 -0.467,-1.969 -0.471,-2.985 -0.006,-2.121 0.033,-4.244 -0.009,-6.364 -0.05,-2.447 -0.739,-4.424 -3.47,-5.202 -0.774,-0.221 -0.702,-1.487 -0.876,-2.269 -0.152,-0.685 -0.442,-1.645 0.538,-2.172 3.101,-1.673 6.203,-3.35 9.29,-5.048 0.452,-0.248 0.807,-0.112 1.227,0.025 2.431,0.792 4.076,2.396 5.05,4.956 z"
   style="fill:#090905;fill-rule:nonzero"
   id="path4" />
        <path
   d="m 179.026,159.634 c 0,0.586 -0.007,0.913 10e-4,1.24 0.03,1.132 -0.323,2.526 0.211,3.325 0.539,0.804 2.021,0.15 3.077,0.293 0.311,0.041 0.668,-0.194 0.85,0.421 0.525,1.775 0.089,3.449 -0.215,5.178 -0.171,0.973 -0.515,1.327 -1.459,1.208 -0.428,-0.053 -0.875,0.037 -1.303,-0.019 -0.926,-0.119 -1.204,0.237 -1.183,1.167 0.06,2.663 0.021,5.329 0.021,7.993 0,7.56 0.018,15.119 -0.013,22.679 -0.007,2.096 0.308,3.824 2.692,4.593 1.345,0.434 1.426,3.993 0.161,4.629 -0.859,0.433 -1.583,1.464 -2.788,0.879 -0.214,-0.102 -0.351,-0.004 -0.477,0.246 -1.067,2.118 -3.452,2.379 -5.15,3.615 -0.314,0.226 -0.628,-0.017 -0.911,-0.127 -3.088,-1.213 -5.704,-4.976 -5.631,-8.298 0.045,-2.06 -0.591,-4.254 0.936,-6.107 0.18,-0.216 0.063,-0.512 -0.086,-0.76 -0.876,-1.455 -0.89,-3.06 -0.884,-4.695 0.025,-8.048 -0.012,-16.096 0.037,-24.144 0.007,-1.202 -0.188,-1.767 -1.557,-1.636 -1.398,0.133 -2.33,-0.984 -2.097,-2.356 0.163,-0.961 0.49,-1.895 0.645,-2.856 0.097,-0.597 0.386,-0.736 0.923,-0.901 5.176,-1.59 8.367,-5.223 10.123,-10.188 0.315,-0.893 0.483,-1.514 1.555,-1.307 0.807,0.155 1.641,-0.433 2.129,1.141 0.543,1.751 0.048,3.398 0.393,4.787 z"
   style="fill:#090905;fill-rule:nonzero"
   id="path5" />
        <path
   d="m 92.797,187.479 c 0,5.114 0.003,10.229 -10e-4,15.343 -0.002,2.146 0.178,4.053 2.737,4.922 1.497,0.508 1.445,3.88 0.065,4.667 -2.544,1.45 -5.118,2.851 -7.645,4.332 -0.694,0.406 -1.234,0.422 -1.926,0.024 -3.356,-1.926 -5.858,-4.738 -5.211,-8.629 0.489,-2.929 -0.031,-5.614 -0.135,-8.415 -0.106,-2.879 -0.023,-5.765 -0.023,-8.648 0,-4.571 -0.037,-9.141 0.015,-13.71 0.026,-2.168 -0.339,-3.916 -2.73,-4.767 -1.405,-0.499 -1.421,-3.842 -0.125,-4.587 2.586,-1.485 5.203,-2.918 7.774,-4.43 0.641,-0.378 1.155,-0.418 1.781,-0.056 3.382,1.958 5.477,4.671 5.436,8.776 -0.05,5.06 -0.012,10.119 -0.012,15.178 z"
   style="fill:#090905;fill-rule:nonzero"
   id="path6" />
        <path
   d="m 162.108,116.862 c 0,-5.221 -0.027,-10.444 0.015,-15.664 0.016,-1.994 -0.584,-3.438 -2.598,-4.2 -1.086,-0.411 -0.914,-1.647 -1.031,-2.569 -0.094,-0.737 -0.288,-1.552 0.723,-2.087 2.682,-1.421 5.309,-2.949 7.933,-4.478 0.593,-0.345 1.071,-0.337 1.641,-0.011 3.328,1.908 5.48,4.552 5.46,8.589 -0.012,2.066 -0.019,4.134 0.004,6.2 0.012,1.25 0.132,2.505 -1.018,3.41 -0.428,0.337 -0.342,0.688 -0.012,1.098 0.85,1.058 1.031,2.318 1.028,3.635 -0.012,5.548 -0.011,11.095 -10e-4,16.645 0.002,2.044 0.298,3.801 2.66,4.667 0.837,0.306 1.109,1.704 1.169,2.822 0.049,0.933 -0.243,1.458 -1.105,1.912 -2.541,1.34 -5.034,2.775 -7.509,4.233 -0.747,0.44 -1.342,0.438 -2.074,0.008 -3.331,-1.962 -5.303,-4.714 -5.289,-8.707 0.019,-5.167 0.004,-10.335 0.004,-15.503 z"
   style="fill:#090905;fill-rule:nonzero"
   id="path7" />
        <path
   d="m 84.473,145.94 c 0.424,-0.995 0.47,-1.967 1.642,-2.383 1.609,-0.572 2.689,-0.215 3.603,1.162 1.168,1.76 1.846,3.663 1.881,5.778 0.022,1.357 -0.118,2.728 0.035,4.068 0.197,1.739 -0.429,2.733 -2.096,3.25 -1.701,0.528 -3.374,1.162 -5.028,1.827 -1.463,0.588 -2.522,0.16 -3.339,-1.097 -1.052,-1.618 -1.688,-3.399 -1.804,-5.315 -0.108,-1.785 -0.048,-3.581 -0.074,-5.372 -0.012,-0.821 -0.127,-1.712 0.927,-1.988 1.16,-0.303 2.224,-1.614 3.56,-0.395 0.155,0.142 0.351,0.238 0.693,0.465 z"
   style="fill:#090905;fill-rule:nonzero"
   id="path8" />
        <path
   d="m 172.915,73.679 c -0.006,2.429 -0.011,4.859 -0.018,7.289 -2.29,1.582 -4.953,2.294 -7.525,3.209 -0.888,0.316 -1.672,0.007 -2.327,-0.738 -1.313,-1.491 -1.948,-3.314 -2.16,-5.18 -0.257,-2.259 -0.106,-4.564 -0.16,-6.848 -0.015,-0.681 0.397,-0.953 0.918,-1.183 2.236,-0.985 4.529,-1.811 6.853,-2.556 0.861,-0.277 1.47,0.014 2.029,0.62 1.405,1.528 2.201,3.322 2.39,5.387 z"
   style="fill:#090905;fill-rule:nonzero"
   id="path9" />
        <path
   d="m 158.775,134.362 c -0.076,-1.02 -0.239,-2.344 -1.158,-2.666 -2.526,-0.882 -3.189,-2.69 -3.186,-5.059 0.012,-8.435 -0.015,-16.869 0.012,-25.304 0.023,-7.235 -3.232,-13.488 -5.874,-19.929 -2.398,-0.818 -2.194,-2.934 -2.556,-4.864 -0.354,-1.887 -1.636,-3.386 -2.635,-4.996 -1.254,-2.019 -2.998,-2.444 -5.182,-1.911 -3.599,0.88 -7.017,2.246 -10.393,3.737 -1.443,0.638 -2.141,2.528 -1.437,3.929 0.492,0.976 0.819,2.005 2.397,1.667 2.3,-0.493 3.775,0.886 4.963,2.665 1.421,2.126 2.507,4.434 3.711,6.679 0.649,1.21 0.421,1.668 -0.884,2.105 -4.058,1.359 -8.098,2.79 -11.982,4.604 -0.668,0.312 -1.48,0.566 -1.483,1.53 -0.006,2.743 -0.417,5.567 1.386,7.986 0.521,0.698 0.347,1.2 -0.28,1.618 -1.04,0.694 -1.148,1.681 -1.14,2.829 0.041,6.205 0.011,12.408 0.022,18.612 0.01,5.526 2.526,9.783 6.812,13.056 2.28,1.743 4.854,0.623 5.308,-2.329 1.297,1.223 2.445,0.667 3.652,-0.146 1.212,-0.817 2.515,-1.497 3.823,-2.263 0.924,2.369 2.66,3.924 4.771,5.154 0.737,0.431 1.32,0.436 2.071,-0.011 2.754,-1.635 5.504,-3.287 8.356,-4.736 1.019,-0.517 0.964,-1.178 0.906,-1.957 z m -16.146,-20.573 c 0,0 0.001,9.338 0,14.018 0,1.983 -0.546,2.636 -2.524,3.029 -1.718,0.34 -3.45,-0.53 -4.033,-1.999 -0.415,-1.045 -0.339,-2.144 -0.342,-3.221 -0.021,-8.762 0.005,-17.527 -0.036,-26.29 -0.004,-0.954 0.277,-1.531 1.136,-1.876 0.702,-0.283 1.376,-0.642 2.09,-0.883 2.732,-0.919 3.691,-0.238 3.704,2.664 0.021,4.843 0.005,9.688 0.005,14.532"
   style="fill:#090905;fill-rule:nonzero"
   id="path10" />
        <path
   d="m 252.013,122.849 c -0.045,-6.691 0.056,-13.385 -0.045,-20.075 -0.081,-5.294 -1.863,-9.98 -5.634,-13.803 -1.236,-1.252 -2.669,-1.69 -4.453,-1.264 -2.75,0.657 -5.464,1.459 -8.046,2.562 -2.826,1.208 -6.13,1.424 -8.391,3.877 -0.111,0.12 -0.498,-0.023 -0.758,-0.031 -2.288,-0.075 -4.057,1.635 -4.057,3.917 v 14.722 c 0.114,4.424 -0.284,9.873 0.179,15.296 0.306,3.573 1.577,6.866 3.989,9.604 2.288,2.597 5.22,3.038 9.12,-0.48 0.642,-0.579 1.516,-0.564 2.322,-0.248 0.389,0.152 0.785,-0.684 1.25,-0.208 0.392,0.401 -0.086,0.699 -0.271,0.956 -3.782,5.259 -7.738,10.257 -15.221,9.736 -0.492,-0.033 -1.018,-0.152 -0.971,1.452 0.053,1.806 1.498,3.92 3.127,4.699 0.499,0.239 0.997,0.479 1.477,0.75 1.464,0.832 2.916,1.171 4.385,0.052 0.771,-0.587 0.973,-0.061 1.242,0.545 1.45,3.268 6.08,4.073 8.357,1.348 5.198,-6.222 9.069,-13.214 11.726,-20.879 0.8,-2.313 0.799,-4.561 -0.45,-6.722 -0.486,-0.844 -0.393,-1.609 0.046,-2.448 0.55,-1.046 1.086,-2.079 1.077,-3.358 z m -11.118,-12.77 c -0.39,0.621 -0.361,1.342 -0.36,2.054 0.01,5.116 -0.025,10.232 0.029,15.347 0.013,1.105 -0.26,1.36 -1.371,1.213 -3.301,-0.438 -4.915,-1.957 -5.318,-5.289 -0.493,-4.066 -0.115,-8.153 -0.246,-11.401 v -10.786 c 0.001,-1.986 0.636,-2.675 2.737,-2.967 2.021,-0.282 3.278,0.461 3.812,2.176 0.534,1.717 -0.024,3.624 0.9,5.257 0.862,1.524 0.725,2.956 -0.183,4.396 z"
   style="fill:#090905;fill-rule:nonzero"
   id="path11" />
        <path
   d="m 74.03,159.664 c 0.126,-5.626 -2.489,-9.72 -6.397,-13.299 -1.197,-1.097 -2.396,-1.334 -4.002,-0.679 -1.588,0.647 -0.926,1.848 -1.15,3.123 -2.238,-1.941 -3.939,-0.358 -5.728,0.696 -0.561,0.33 -1.139,0.635 -1.674,1.004 -0.585,0.403 -0.831,0.332 -1.163,-0.368 -0.963,-2.027 -2.605,-3.439 -4.524,-4.549 -0.733,-0.425 -1.342,-0.406 -2.252,0.331 -1.956,1.585 -4.091,2.981 -6.5,3.71 -1.82,0.551 -1.84,1.56 -1.616,2.548 0.21,0.927 -0.102,2.18 1.221,2.634 1.728,0.593 2.419,1.871 2.388,3.642 -0.027,1.577 -0.005,3.155 -0.005,4.733 0,14.472 -10e-4,28.944 0,43.416 0,1.87 -0.252,3.698 -1.129,5.367 -0.924,1.76 -2.374,2.872 -4.4,3.061 0.554,1.562 1.062,2.989 1.843,4.293 0.191,0.318 0.202,1.008 0.839,0.675 2.319,-1.214 5.417,-1.228 6.602,-4.201 0.446,-1.118 1.125,-1.184 2.184,-0.83 0.881,0.295 1.791,0.705 2.832,0.22 2.064,-0.959 4.184,-1.794 6.286,-2.67 0.4,-0.166 0.816,-0.249 0.898,-0.802 0.218,-1.459 -0.185,-2.83 -0.644,-4.165 -0.252,-0.734 -1.14,-0.32 -1.713,-0.575 -0.875,-0.389 -1.169,-0.979 -1.268,-1.877 -0.356,-3.201 -0.052,-6.413 -0.221,-9.611 -0.065,-1.219 0.405,-1.663 1.488,-2.016 5.362,-1.75 10.602,-3.819 15.748,-6.137 1.455,-0.655 2.079,-1.484 2.057,-3.193 -0.105,-8.159 -0.183,-16.324 0,-24.481 z m -14.775,26.161 c -4.321,2.379 -4.627,2.23 -4.627,-2.523 v -11.089 c 0,-4.295 0,-8.588 10e-4,-12.883 0.001,-1.57 1.185,-2.903 2.746,-3.064 2.145,-0.222 3.778,0.84 4.036,2.707 0.141,1.017 0.171,2.056 0.174,3.085 0.014,6.577 -0.058,13.156 0.047,19.732 0.031,1.968 -0.746,3.137 -2.377,4.035 z"
   style="fill:#090905;fill-rule:nonzero"
   id="path12" />
        <path
   d="m 108.705,88.468 c -0.796,-0.694 -1.728,-1.189 -2.839,-0.867 -7.094,2.05 -13.982,4.654 -20.737,7.63 -0.843,0.372 -1.163,0.955 -1.158,1.911 0.049,10.172 -0.078,20.348 0.132,30.518 0.101,4.878 2.091,9.151 5.753,12.529 1.356,1.251 2.896,1.476 4.688,1.163 1.618,-0.283 2.261,-1.244 2.62,-2.673 0.221,-0.876 0.666,-1.124 1.456,-0.373 0.634,0.603 1.252,1.352 2.401,0.913 4.355,-1.661 8.735,-3.252 12.939,-5.288 1.096,-0.531 1.428,-1.248 1.414,-2.432 -0.059,-5.222 -0.025,-10.446 -0.025,-15.669 0,-4.624 -0.123,-9.253 0.031,-13.873 0.192,-5.749 -2.585,-9.922 -6.675,-13.489 z m -5.059,33.153 c -1.12,2 -0.469,4.145 -0.581,6.216 -0.107,1.992 -0.677,2.738 -2.705,3.042 -1.74,0.26 -3.471,-0.689 -3.892,-2.231 -0.199,-0.721 -0.267,-1.496 -0.27,-2.248 -0.025,-4.241 -0.013,-8.481 -0.013,-12.722 0,-4.294 0.053,-8.59 -0.033,-12.883 -0.025,-1.19 0.41,-1.766 1.429,-2.192 2.271,-0.952 5.481,-0.029 5.441,3.465 -0.06,5.326 0.002,10.654 0.025,15.981 0.004,0.795 -0.148,1.601 0.431,2.337 0.229,0.29 0.336,0.936 0.168,1.235 z"
   style="fill:#090905;fill-rule:nonzero"
   id="path13" />
        <path
   d="m 163.51,209.798 c -0.333,-0.907 -0.113,-2.164 -1.449,-2.627 -2.508,-0.87 -3.002,-1.633 -3.01,-4.338 -0.014,-4.299 -0.004,-8.599 -0.004,-12.898 0,-4.027 -0.041,-8.055 0.01,-12.081 0.058,-4.369 -1.421,-8.184 -4.039,-11.6 -1.04,-1.356 -2.319,-2.419 -4.024,-2.904 -0.941,-0.267 -1.698,-0.323 -2.102,0.798 -0.213,0.595 -0.598,0.96 -1.197,0.348 -0.686,-0.704 -1.452,-0.551 -2.261,-0.274 -3.281,1.123 -6.572,2.219 -9.852,3.348 -2.09,0.719 -2.44,1.953 -1.798,4.119 0.417,1.403 1.08,1.582 2.324,1.553 2.342,-0.055 4.674,0.232 6.898,1.023 2.24,0.797 3.553,2.306 3.735,4.81 0.074,1.033 -0.313,1.323 -1.131,1.563 -1.509,0.442 -3.004,0.926 -4.496,1.421 -3.712,1.232 -7.322,2.707 -10.734,4.635 -1.722,0.972 -2.446,2.28 -2.634,4.426 -0.404,4.618 1.785,9.184 0.12,13.78 -0.083,0.227 0.038,0.534 0.074,0.802 0.681,5.09 3.672,8.542 7.86,11.18 0.673,0.426 1.09,0.124 1.613,-0.156 3.009,-1.62 6.027,-3.223 9.032,-4.849 0.659,-0.357 0.991,-0.472 1.391,0.447 0.871,2.005 2.507,3.362 4.393,4.434 0.696,0.396 1.262,0.39 1.961,-0.013 2.775,-1.596 5.549,-3.199 8.391,-4.665 1.1,-0.568 1.227,-1.464 0.929,-2.282 z m -15.657,-16.383 c -1.721,3.047 -0.58,6.363 -0.876,9.54 -0.226,2.428 -2.465,3.902 -4.723,2.825 -1.312,-0.626 -2.274,-1.584 -2.221,-3.266 0.083,-2.55 -0.049,-5.108 0.092,-7.652 0.233,-4.203 2.549,-6.803 6.828,-7.828 0.037,2.025 -0.096,4.065 0.738,5.968 0.062,0.139 0.208,0.332 0.162,0.413 z"
   style="fill:#090905;fill-rule:nonzero"
   id="path14" />
        <path
   d="m 217.97,189.153 c -0.546,-2.068 0.061,-4.06 0.041,-6.083 -0.022,-2.068 -0.069,-4.138 0.007,-6.201 0.216,-5.903 -2.878,-9.941 -7.394,-13.13 -1.876,-1.325 -4.95,-0.101 -5.571,2.179 -0.987,-0.25 -1.699,-1.034 -2.832,-0.624 -4.738,1.714 -9.485,3.401 -14.081,5.483 -0.932,0.423 -1.375,0.981 -1.359,2.1 0.068,4.788 -0.154,9.585 0.114,14.358 0.118,2.098 0.285,4.089 0.018,6.225 -0.397,3.161 -0.236,6.414 -0.071,9.616 0.251,4.875 1.901,9.214 5.605,12.58 1.518,1.378 3.239,1.845 5.271,1.167 4.162,-1.389 8.351,-2.696 12.527,-4.044 2.173,-0.702 2.45,-1.77 1.819,-4.072 -0.393,-1.445 -1.15,-1.513 -2.255,-1.492 -1.86,0.036 -3.689,-0.241 -5.487,-0.68 -3.1,-0.758 -5.054,-2.922 -5.18,-5.514 -0.033,-0.689 0.146,-0.918 0.787,-1.102 1.564,-0.45 3.105,-0.98 4.638,-1.524 3.835,-1.361 7.588,-2.912 11.088,-5.017 1.588,-0.955 2.843,-2.224 2.315,-4.225 z m -12.165,-4.619 c -0.016,4.482 -2.338,7.547 -6.856,8.888 0,-5.866 0.016,-11.625 -0.018,-17.383 -0.003,-0.769 0.272,-1.155 0.93,-1.493 3.408,-1.747 5.932,-0.222 5.944,3.63 0.007,2.119 0.008,4.239 0,6.358 z"
   style="fill:#090905;fill-rule:nonzero"
   id="path15" />
    </g></g></g></svg>
