<svg id="Logo" xmlns="http://www.w3.org/2000/svg" viewBox="0 0 283.47 566.93"><path d="M141.73,253h0c47,0,89.09-21.46,115-56.29,17-23.08,26.73-52.64,26.73-97.59V0H0V99.12c0,44.95,9.72,74.51,26.73,97.59,25.91,34.83,68,56.29,115,56.29ZM216.78,66.68V99.12c0,34.76-7.26,49.22-13.63,57.91-13.92,18.61-36.3,29.29-61.42,29.29h0c-25.12,0-47.49-10.68-61.41-29.29C74,148.34,66.68,133.88,66.68,99.12V66.68Z"/><polygon points="163.78 486.63 216.77 413.55 216.77 566.92 283.47 566.93 283.47 283.46 232.16 283.46 141.73 408.61 51.31 283.46 0 283.46 0 566.93 66.69 566.92 66.69 413.55 119.69 486.63 163.78 486.63"/></svg>