<?xml version="1.0" encoding="UTF-8" standalone="no"?>
<!-- Created with Inkscape (http://www.inkscape.org/) -->

<svg
   version="1.1"
   id="svg2"
   width="292.13333"
   height="65.90667"
   viewBox="0 0 292.13333 65.90667"
   sodipodi:docname="DOKK1_BLACK.eps"
   xmlns:inkscape="http://www.inkscape.org/namespaces/inkscape"
   xmlns:sodipodi="http://sodipodi.sourceforge.net/DTD/sodipodi-0.dtd"
   xmlns="http://www.w3.org/2000/svg"
   xmlns:svg="http://www.w3.org/2000/svg">
  <defs
     id="defs6" />
  <sodipodi:namedview
     id="namedview4"
     pagecolor="#ffffff"
     bordercolor="#000000"
     borderopacity="0.25"
     inkscape:showpageshadow="2"
     inkscape:pageopacity="0.0"
     inkscape:pagecheckerboard="0"
     inkscape:deskcolor="#d1d1d1" />
  <g
     id="g8"
     inkscape:groupmode="layer"
     inkscape:label="ink_ext_XXXXXX"
     transform="matrix(1.3333333,0,0,-1.3333333,0,65.906667)">
    <g
       id="g10"
       transform="scale(0.1)">
      <path
         d="M 2117.71,106.426 V 485.25 h -138 l -72.66,-97.391 h 96.7 V 106.426 h -73.23 V 9.02344 h 260.47 V 106.426 h -73.28"
         style="fill:#918f90;fill-opacity:1;fill-rule:nonzero;stroke:none"
         id="path12" />
      <path
         d="m 121.633,115.867 h 66.734 c 90.766,0 116.504,63.071 116.504,130.61 0,27.046 -5.789,61.128 -23.16,88.179 -14.152,21.203 -38.625,43.789 -92.688,43.789 h -67.39 z M 0,485.25 h 172.246 c 53.457,0 148.672,0 210.469,-88.793 32.851,-45.078 43.738,-95.922 43.738,-148.027 C 426.453,118.406 362.117,9.02344 181.27,9.02344 H 0 V 485.25"
         style="fill:#231f20;fill-opacity:1;fill-rule:nonzero;stroke:none"
         id="path14" />
      <path
         d="m 722.227,106.797 c 86.23,0 128.078,78.547 128.078,139.68 0,61.777 -41.848,140.933 -129.328,140.933 -84.336,0 -130.039,-72.066 -130.039,-138.98 0,-73.371 49.589,-141.633 131.289,-141.633 z m -1.914,387.457 C 867.02,494.254 971.965,379.73 971.965,247.129 971.965,114.543 867.727,0 719.648,0 569.727,0 469.336,119.082 469.336,241.34 c 0,31.504 4.473,66.914 18.625,101.668 25.105,61.82 99.141,151.246 232.352,151.246"
         style="fill:#231f20;fill-opacity:1;fill-rule:nonzero;stroke:none"
         id="path16" />
      <path
         d="m 1021.73,485.25 h 121.7 V 270.938 h 1.3 l 155.31,214.312 h 127.43 L 1248.79,247.781 1437.75,9.02344 H 1295.58 L 1144.73,214.941 h -1.3 V 9.02344 h -121.7 V 485.25"
         style="fill:#231f20;fill-opacity:1;fill-rule:nonzero;stroke:none"
         id="path18" />
      <path
         d="m 1479.29,485.25 h 121.65 V 270.938 h 1.3 l 155.55,214.312 h 127.42 L 1706.48,247.781 1895.51,9.02344 H 1753.27 L 1602.24,214.941 h -1.3 V 9.02344 H 1479.29 V 485.25"
         style="fill:#231f20;fill-opacity:1;fill-rule:nonzero;stroke:none"
         id="path20" />
    </g>
  </g>
</svg>
