<?xml version="1.0" encoding="UTF-8" standalone="no"?>
<!-- Created with Inkscape (http://www.inkscape.org/) -->

<svg
   width="53.327999mm"
   height="15.99953mm"
   viewBox="0 0 53.327999 15.99953"
   version="1.1"
   id="svg1"
   inkscape:version="1.4 (e7c3feb100, 2024-10-09)"
   sodipodi:docname="dr-logo.svg"
   xmlns:inkscape="http://www.inkscape.org/namespaces/inkscape"
   xmlns:sodipodi="http://sodipodi.sourceforge.net/DTD/sodipodi-0.dtd"
   xmlns="http://www.w3.org/2000/svg"
   xmlns:svg="http://www.w3.org/2000/svg">
  <sodipodi:namedview
     id="namedview1"
     pagecolor="#ffffff"
     bordercolor="#000000"
     borderopacity="0.25"
     inkscape:showpageshadow="2"
     inkscape:pageopacity="0.0"
     inkscape:pagecheckerboard="0"
     inkscape:deskcolor="#d1d1d1"
     inkscape:document-units="mm"
     inkscape:zoom="5.8457335"
     inkscape:cx="41.397713"
     inkscape:cy="71.505141"
     inkscape:window-width="2560"
     inkscape:window-height="1371"
     inkscape:window-x="0"
     inkscape:window-y="0"
     inkscape:window-maximized="1"
     inkscape:current-layer="layer1" />
  <defs
     id="defs1">
    <clipPath
       clipPathUnits="userSpaceOnUse"
       id="clipPath3">
      <path
         d="M 0,595.28 H 841.89 V 0 H 0 Z"
         transform="translate(-260.78521,-310.58791)"
         id="path3" />
    </clipPath>
    <clipPath
       clipPathUnits="userSpaceOnUse"
       id="clipPath5">
      <path
         d="M 0,595.28 H 841.89 V 0 H 0 Z"
         transform="translate(-314.17721,-316.41511)"
         id="path5" />
    </clipPath>
  </defs>
  <g
     inkscape:label="Layer 1"
     inkscape:groupmode="layer"
     id="layer1"
     transform="translate(-47.624999,-125.94166)">
    <path
       id="path1"
       d="M 92.098181,128.47627 H 56.269837 v 10.74926 h 35.828344 z"
       style="fill:#1d1d1b;fill-opacity:1;fill-rule:nonzero;stroke:none;stroke-width:0.237013" />
    <path
       id="path2"
       d="m 0,0 h -10.134 c -0.288,0 -0.345,0.115 -0.345,0.345 V 13.98 c 0,0.228 0.057,0.344 0.345,0.344 H 0 c 6.026,0 8.438,-1.721 8.438,-7.147 C 8.438,1.75 6.026,0 0,0 m 8.377,18.486 h -32.351 c -0.287,0 -0.43,-0.172 -0.43,-0.429 V -3.731 c 0,-0.259 0.143,-0.432 0.43,-0.432 H 8.377 c 9.502,0 14.297,3.158 14.297,11.396 0,8.182 -4.795,11.253 -14.297,11.253"
       style="fill:#ffffff;fill-opacity:1;fill-rule:nonzero;stroke:none"
       transform="matrix(0.23701325,0,0,-0.23701325,68.583199,135.48572)"
       clip-path="url(#clipPath3)" />
    <path
       id="path4"
       d="m 0,0 h -11.309 c -0.26,0 -0.346,0.087 -0.346,0.344 v 7.809 c 0,0.258 0.086,0.343 0.346,0.343 H 0 C 3.79,8.496 5.397,7.462 5.397,4.334 5.397,1.177 3.79,0 0,0 m 20.32,-9.071 -9.358,6.602 c -0.23,0.173 -0.373,0.258 -0.373,0.374 0,0.113 0.086,0.173 0.288,0.173 4.735,0 8.41,2.209 8.41,7.088 0,4.851 -3.158,7.493 -8.985,7.493 H -25.15 c -0.287,0 -0.43,-0.172 -0.43,-0.43 V -9.558 c 0,-0.259 0.143,-0.432 0.43,-0.432 h 13.046 c 0.287,0 0.431,0.173 0.431,0.432 v 5.166 c 0,0.259 0.086,0.344 0.344,0.344 h 7.507 c 0.374,0 0.517,-0.029 0.775,-0.23 L 3.47,-9.674 C 3.787,-9.933 4.015,-9.99 4.388,-9.99 h 16.219 c 0.23,0 0.345,0.087 0.345,0.259 0,0.229 -0.402,0.488 -0.632,0.66"
       style="fill:#ffffff;fill-opacity:1;fill-rule:nonzero;stroke:none"
       transform="matrix(0.23701325,0,0,-0.23701325,81.23781,134.1046)"
       clip-path="url(#clipPath5)" />
  </g>
</svg>
