<?xml version="1.0" encoding="UTF-8" standalone="no"?>
<svg
   width="230"
   height="125"
   viewBox="0 0 230 125"
   fill="none"
   version="1.1"
   id="svg20"
   sodipodi:docname="regmidt-logo.svg"
   inkscape:version="1.4 (e7c3feb100, 2024-10-09)"
   xmlns:inkscape="http://www.inkscape.org/namespaces/inkscape"
   xmlns:sodipodi="http://sodipodi.sourceforge.net/DTD/sodipodi-0.dtd"
   xmlns="http://www.w3.org/2000/svg"
   xmlns:svg="http://www.w3.org/2000/svg">
  <defs
     id="defs20" />
  <sodipodi:namedview
     id="namedview20"
     pagecolor="#ffffff"
     bordercolor="#000000"
     borderopacity="0.25"
     inkscape:showpageshadow="2"
     inkscape:pageopacity="0.0"
     inkscape:pagecheckerboard="0"
     inkscape:deskcolor="#d1d1d1"
     inkscape:zoom="4.64"
     inkscape:cx="110.45259"
     inkscape:cy="70.689655"
     inkscape:window-width="2560"
     inkscape:window-height="1371"
     inkscape:window-x="0"
     inkscape:window-y="0"
     inkscape:window-maximized="1"
     inkscape:current-layer="svg20" />
  <path
     d="M29.7821 95.4457C27.9359 95.4457 26.867 95.7371 26.0896 96.1257V106.229H24.2434V93.8914H25.9925L26.0896 94.8629C26.9642 94.1829 28.5189 93.6971 29.6849 93.6971C29.9764 93.6971 30.851 93.6971 31.434 93.7943V95.4457H29.7821Z"
     fill="#333740"
     id="path1"
     style="fill:#000000;fill-opacity:1" />
  <path
     d="M41.2481 100.4H34.5434V102.634C34.5434 104.091 35.1264 104.869 36.9726 104.869H42.6085V105.743C42.1226 106.131 41.1509 106.423 40.0821 106.423H36.8755C34.6406 106.423 32.6 105.451 32.6 102.44V97.8743C32.6 94.4743 34.6406 93.6 37.3613 93.6H38.4302C40.8594 93.6 42.9 94.3771 42.9 97.5829V100.011L41.2481 100.4ZM41.0538 97.2914C41.0538 95.64 40.1793 95.2514 38.6245 95.2514H36.9726C35.1264 95.2514 34.5434 96.0286 34.5434 97.5829V99.04H41.1509V97.2914H41.0538Z"
     fill="#333740"
     id="path2"
     style="fill:#000000;fill-opacity:1" />
  <path
     d="M52.2283 111.377H49.3132C48.5358 111.377 47.2726 111.28 46.5924 110.794V109.726H52.4226C53.8802 109.726 54.4632 108.949 54.4632 107.491V104.771C53.5887 105.646 52.4226 105.937 51.1594 105.937H49.5075C47.3698 105.937 46.2038 105.063 46.2038 102.926V97.0971C46.2038 94.7657 47.7585 93.6971 49.8962 93.6971H51.7424C52.7141 93.6971 53.9773 94.0857 54.5604 94.8629L54.8519 93.9886H56.3094V107.394C56.3094 110.211 54.9491 111.377 52.2283 111.377ZM54.4632 96.1257C53.8802 95.7371 52.8113 95.3486 51.3538 95.3486H49.6047C48.9245 95.3486 48.1472 95.64 48.1472 97.0971V102.731C48.1472 104.189 49.1189 104.286 49.8962 104.286H51.3538C52.9085 104.286 53.9773 103.994 54.5604 103.897V96.1257H54.4632Z"
     fill="#333740"
     id="path3"
     style="fill:#000000;fill-opacity:1" />
  <path
     d="M60.8764 91.2686V88.9371H62.7226V91.2686H60.8764ZM60.8764 106.229V93.8914H62.7226V106.229H60.8764Z"
     fill="#333740"
     id="path4"
     style="fill:#000000;fill-opacity:1" />
  <path
     d="M73.1198 106.52H70.7877C68.2613 106.52 66.6094 105.16 66.6094 102.537V97.5829C66.6094 94.96 68.2613 93.6 70.7877 93.6H73.1198C75.7434 93.6 77.2009 95.1543 77.2009 97.68V102.343C77.2009 104.966 75.7434 106.52 73.1198 106.52ZM75.2575 97.3886C75.2575 96.2229 74.6745 95.1543 73.4113 95.1543H70.3019C68.9415 95.1543 68.3585 96.1257 68.3585 97.3886V102.731C68.3585 103.994 68.9415 104.966 70.3019 104.966H73.4113C74.6745 104.966 75.2575 103.897 75.2575 102.731V97.3886Z"
     fill="#333740"
     id="path5"
     style="fill:#000000;fill-opacity:1" />
  <path
     d="M88.7641 106.229V96.6114C88.7641 95.64 87.8896 95.3486 87.2094 95.3486H85.266C84.0028 95.3486 82.9339 95.5429 82.4481 95.7371V106.229H80.6019V93.8914H82.3509L82.4481 94.7657C83.3226 93.9886 84.5858 93.6 85.7519 93.6H87.5981C89.1528 93.6 90.7075 94.28 90.7075 96.32V106.229H88.7641Z"
     fill="#333740"
     id="path6"
     style="fill:#000000;fill-opacity:1" />
  <path
     d="M109.947 106.229V96.6114C109.947 95.64 109.073 95.3486 108.392 95.3486H107.129C105.866 95.3486 104.797 95.5429 104.311 95.7371V106.229H102.368V96.6114C102.368 95.64 101.493 95.3486 100.813 95.3486H99.4528C98.384 95.3486 97.4123 95.5429 96.7321 95.7371V106.229H94.8859V93.8914H96.6349L96.7321 94.7657C97.6066 93.9886 98.8698 93.6 99.9387 93.6H101.202C102.368 93.6 103.534 93.9886 104.02 95.0571C104.797 94.0857 106.158 93.6 107.615 93.6H108.781C110.336 93.6 111.891 94.28 111.891 96.32V106.229H109.947Z"
     fill="#333740"
     id="path7"
     style="fill:#000000;fill-opacity:1" />
  <path
     d="M115.875 91.2686V88.9371H117.721V91.2686H115.875ZM115.875 106.229V93.8914H117.721V106.229H115.875Z"
     fill="#333740"
     id="path8"
     style="fill:#000000;fill-opacity:1" />
  <path
     d="M129.575 106.229L129.381 105.354C128.507 106.229 127.243 106.52 126.077 106.52H124.134C122.774 106.52 121.122 105.937 121.122 103.703V97.0971C121.122 94.8629 122.579 93.6971 124.62 93.6971H126.369C127.438 93.6971 128.701 94.0857 129.284 94.7657V88.9371H131.13V106.229H129.575ZM129.381 96.1257C128.798 95.7371 127.729 95.3486 126.272 95.3486H124.523C123.842 95.3486 123.065 95.64 123.065 97.0971V103.314C123.065 104.771 124.037 104.869 124.814 104.869H126.272C127.826 104.869 128.895 104.577 129.478 104.48V96.1257H129.381Z"
     fill="#333740"
     id="path9"
     style="fill:#000000;fill-opacity:1" />
  <path
     d="M138.904 106.52C136.766 106.52 135.503 105.937 135.503 103.897V95.64H133.365V94.1829H135.503V90.7829L137.349 90.4914V94.1829H141.625V95.64H137.349V103.509C137.349 104.091 137.349 104.869 138.515 104.869H141.625V105.937C141.042 106.326 139.681 106.52 138.904 106.52Z"
     fill="#333740"
     id="path10"
     style="fill:#000000;fill-opacity:1" />
  <path
     d="M143.568 111.377C143.374 111.377 142.402 111.377 141.722 111.183V109.823H143.276C144.928 109.823 145.511 109.531 145.511 107.394V93.8914H147.358V107.491C147.358 110.406 145.9 111.377 143.568 111.377ZM145.511 91.2686V88.9371H147.358V91.2686H145.511Z"
     fill="#333740"
     id="path11"
     style="fill:#000000;fill-opacity:1" />
  <path
     d="M154.742 111.183H152.993L154.937 106.034L150.078 93.9886H152.022L155.811 103.606H155.908L159.212 93.9886H161.058L154.742 111.183Z"
     fill="#333740"
     id="path12"
     style="fill:#000000;fill-opacity:1" />
  <path
     d="M163.488 106.229V88.9371H165.334V106.229H163.488Z"
     fill="#333740"
     id="path13"
     style="fill:#000000;fill-opacity:1" />
  <path
     d="M169.707 106.229V88.9371H171.553V106.229H169.707Z"
     fill="#333740"
     id="path14"
     style="fill:#000000;fill-opacity:1" />
  <path
     d="M183.505 106.229C183.505 105.84 183.505 105.84 183.408 105.063H183.31C182.922 105.84 182.047 106.52 180.59 106.52H178.16C176.314 106.52 174.954 105.451 174.954 103.703V102.246C174.954 99.9143 176.314 98.9429 178.452 98.9429H183.019V96.9029C183.019 95.5429 182.241 95.3486 181.075 95.3486H175.828V94.1829C176.508 93.7943 177.869 93.6 178.743 93.6H181.367C183.31 93.6 184.962 94.28 184.962 96.7086V102.149C184.962 103.994 185.059 104.966 185.157 106.229H183.505ZM183.019 100.4H178.549C177.48 100.4 176.8 100.789 176.8 101.954V103.411C176.8 104.48 177.577 104.869 178.452 104.869H180.978C181.95 104.869 183.019 104.383 183.019 102.829V100.4Z"
     fill="#333740"
     id="path15"
     style="fill:#000000;fill-opacity:1" />
  <path
     d="M197.303 106.229V96.6114C197.303 95.64 196.428 95.3486 195.748 95.3486H193.805C192.542 95.3486 191.473 95.5429 190.987 95.7371V106.229H189.141V93.8914H190.89L190.987 94.7657C191.861 93.9886 193.125 93.6 194.291 93.6H196.137C197.692 93.6 199.246 94.28 199.246 96.32V106.229H197.303Z"
     fill="#333740"
     id="path16"
     style="fill:#000000;fill-opacity:1" />
  <path
     d="M211.198 106.229L211.004 105.354C210.129 106.229 208.866 106.52 207.7 106.52H205.757C204.396 106.52 202.744 105.937 202.744 103.703V97.0971C202.744 94.8629 204.202 93.6971 206.242 93.6971H207.991C209.06 93.6971 210.324 94.0857 210.907 94.7657V88.9371H212.753V106.229H211.198ZM211.004 96.1257C210.421 95.7371 209.352 95.3486 207.894 95.3486H206.145C205.465 95.3486 204.688 95.64 204.688 97.0971V103.314C204.688 104.771 205.659 104.869 206.437 104.869H207.894C209.449 104.869 210.518 104.577 211.101 104.48V96.1257H211.004Z"
     fill="#333740"
     id="path17"
     style="fill:#000000;fill-opacity:1" />
  <path
     d="M45.5236 32.4971C42.9 32.4971 40.2764 32.4971 37.75 32.4971C29.8792 32.5943 20.9396 32.6914 17.0528 33.1771C16.3726 33.2743 16.1783 33.76 16.0811 34.3429C15.9839 34.9257 15.8868 37.3543 15.8868 37.84C15.8868 38.4229 16.1783 38.9086 16.8585 39.0057C17.3443 39.1029 24.3406 40.3657 24.3406 44.8343V80.4857C24.3406 80.9714 24.5349 81.5543 25.4094 81.6514C27.1585 81.7486 29.199 81.7486 31.2396 81.7486C33.0858 81.7486 34.9321 81.7486 36.4868 81.6514C37.3613 81.6514 37.6528 80.9714 37.6528 80.4857V43.8629C37.6528 43.1829 38.1387 42.8914 38.8189 42.7943C39.2075 42.7943 40.5679 42.6971 42.317 42.6971C43.5802 42.6971 45.1349 42.6971 46.4953 42.7943C49.8962 42.9886 51.3538 44.3486 51.3538 48.6229V80.3886C51.3538 80.8743 51.4509 81.4571 52.5198 81.5543C54.4632 81.6514 56.2123 81.6514 58.1556 81.6514C59.9047 81.6514 61.7509 81.6514 63.7915 81.5543C64.7632 81.5543 64.9575 80.9714 64.9575 80.3886V43.8629C64.9575 43.1829 65.5406 42.7943 66.1236 42.7943C66.6094 42.6971 67.1924 42.6971 68.2613 42.6971C69.3302 42.6971 70.6906 42.6971 72.7311 42.7943C76.8123 42.8914 78.95 44.1543 78.95 48.9143V73.88C78.95 78.9314 79.4358 81.4571 85.0717 81.6514C86.4321 81.6514 87.5009 81.7486 88.4726 81.7486C90.416 81.7486 91.4849 81.6514 91.8736 81.6514C92.4566 81.5543 92.8453 81.1657 92.9424 80.4857C92.9424 79.8057 92.9424 63.3886 92.9424 52.7029C92.9424 35.5086 92.5538 33.9543 72.634 33.08C64.8604 32.5943 54.8519 32.4971 45.5236 32.4971Z"
     fill="#333740"
     id="path18"
     style="fill:#000000;fill-opacity:1" />
  <path
     d="M107.518 33.08C103.825 33.08 100.327 33.1771 98.1896 33.3714C97.4123 33.4686 97.3151 34.0514 97.2179 34.5371C97.2179 35.12 97.0236 37.4514 97.0236 38.0343C97.0236 38.52 97.3151 39.0057 97.9953 39.2C98.4811 39.2971 105.477 40.8514 105.477 45.1257V80.3886C105.477 80.8743 105.769 81.4571 106.643 81.5543C108.587 81.6514 110.53 81.7486 112.474 81.7486C114.514 81.7486 116.458 81.6514 118.498 81.5543C119.275 81.5543 119.567 80.9714 119.567 80.3886V34.6343C119.567 34.1486 119.275 33.5657 118.401 33.4686C115.583 33.2743 111.502 33.08 107.518 33.08Z"
     fill="#333740"
     id="path19"
     style="fill:#000000;fill-opacity:1" />
  <path
     d="M181.756 75.24C177.189 73.7829 174.371 74.4629 174.079 70.1886C173.788 66.0114 173.982 27.3486 173.691 21.4229C173.496 18.12 174.176 18.0229 166.986 16.6629C159.601 15.3029 160.378 16.3714 160.281 18.8971C160.184 21.6171 160.087 29.7771 159.99 31.2343C159.892 32.3029 159.601 32.6914 158.629 32.5943C155.131 32.4 151.244 32.3029 148.232 32.3029C139.875 32.3029 128.118 35.12 128.118 57.9486C128.118 81.5543 142.013 81.1657 147.358 81.5543C151.05 81.8457 169.124 82.04 181.075 81.4571C181.853 81.36 182.144 80.9714 182.242 80.2914C182.436 79.6114 182.533 76.6971 182.533 76.1143C182.533 75.8229 182.436 75.4343 181.756 75.24ZM160.087 71.16C160.087 72.8114 158.921 72.9086 157.852 73.0057C156.783 73.1029 156.394 73.1029 152.896 73.1029C146.386 73.1029 141.625 71.4514 141.625 57.4629C141.625 43.4743 144.928 41.6286 152.702 41.6286C152.702 41.6286 155.811 41.6286 157.852 41.8229C159.018 42.0171 159.892 42.3086 159.99 43.5714C160.184 49.8857 160.087 60.96 160.087 71.16ZM212.461 76.1143C210.712 75.6286 209.449 75.6286 204.979 74.6571C199.732 73.3943 199.926 72.52 199.635 66.9829C199.441 62.9029 199.246 51.3429 199.441 45.5143C199.635 40.7543 207.992 39.88 208.575 39.7829C209.158 39.5886 209.449 39.2971 209.546 38.7143C209.643 38.1314 209.449 35.7029 209.352 35.0229C209.255 34.44 208.866 34.1486 208.38 34.0514C206.728 33.76 202.258 33.5657 199.829 33.3714C198.955 33.2743 198.566 32.7886 198.469 32.2057C198.275 31.5257 197.983 29.4857 197.4 26.28C196.914 23.6571 197.108 22.4914 193.805 21.8114C186.128 20.2571 186.225 21.0343 186.128 23.3657C186.128 25.6971 185.74 61.64 185.74 67.5657C185.74 78.4457 187.78 82.04 199.732 82.04C202.356 82.04 207.894 81.8457 210.712 81.6514C213.336 81.4571 213.336 81.36 213.53 78.64C213.725 76.6971 213.822 76.5029 212.461 76.1143Z"
     fill="#333740"
     id="path20"
     style="fill:#000000;fill-opacity:1" />
</svg>
