<?xml version="1.0" encoding="UTF-8" standalone="no"?>
<!-- Generator: Adobe Illustrator 27.5.0, SVG Export Plug-In . SVG Version: 6.00 Build 0)  -->

<svg
   version="1.1"
   id="Layer_1"
   x="0px"
   y="0px"
   viewBox="0 0 99.2 58.6"
   style="enable-background:new 0 0 99.2 58.6;"
   xml:space="preserve"
   sodipodi:docname="UCN_LOGO_RGB.svg"
   inkscape:version="1.4 (e7c3feb100, 2024-10-09)"
   xmlns:inkscape="http://www.inkscape.org/namespaces/inkscape"
   xmlns:sodipodi="http://sodipodi.sourceforge.net/DTD/sodipodi-0.dtd"
   xmlns="http://www.w3.org/2000/svg"
   xmlns:svg="http://www.w3.org/2000/svg"><defs
   id="defs3" /><sodipodi:namedview
   id="namedview3"
   pagecolor="#ffffff"
   bordercolor="#000000"
   borderopacity="0.25"
   inkscape:showpageshadow="2"
   inkscape:pageopacity="0.0"
   inkscape:pagecheckerboard="0"
   inkscape:deskcolor="#d1d1d1"
   inkscape:zoom="6.998668"
   inkscape:cx="61.940358"
   inkscape:cy="43.293953"
   inkscape:window-width="2560"
   inkscape:window-height="1371"
   inkscape:window-x="0"
   inkscape:window-y="0"
   inkscape:window-maximized="1"
   inkscape:current-layer="g3" />
<style
   type="text/css"
   id="style1">
	.st0{fill:#004250;}
</style>
<g
   id="g3">
	<path
   class="st0"
   d="M18,36.1c0,2.5-2,4.5-4.5,4.5S9,38.6,9,36.1V10.1H0v25.9c0,7.5,6.1,13.5,13.5,13.5s13.5-6.1,13.5-13.5V10.1h-9   V36.1z"
   id="path1"
   style="fill:#000000;fill-opacity:1" />
	<path
   class="st0"
   d="M49.6,0c-7.5,0-13.5,6.1-13.5,13.5v31.6c0,7.5,6.1,13.5,13.5,13.5c7.5,0,13.5-6.1,13.5-13.5V33.8h-9v11.3   c0,2.5-2,4.5-4.5,4.5s-4.5-2-4.5-4.5V13.5c0-2.5,2-4.5,4.5-4.5s4.5,2,4.5,4.5v11.3h9V13.5C63.1,6.1,57.1,0,49.6,0z"
   id="path2"
   style="fill:#000000;fill-opacity:1" />
	<path
   class="st0"
   d="M85.7,9c-7.5,0-13.5,6.1-13.5,13.5v25.9h9V22.5c0-2.5,2-4.5,4.5-4.5c2.5,0,4.5,2,4.5,4.5v25.9h9V22.5   C99.2,15.1,93.2,9,85.7,9z"
   id="path3"
   style="fill:#000000;fill-opacity:1" />
</g>
</svg>
