<?xml version="1.0" encoding="UTF-8" standalone="no"?>
<!-- Generator: Adobe Illustrator 27.5.0, SVG Export Plug-In . SVG Version: 6.00 Build 0)  -->

<svg
   version="1.1"
   id="Layer_1"
   x="0px"
   y="0px"
   viewBox="0 0 99.2 58.6"
   style="enable-background:new 0 0 99.2 58.6;"
   xml:space="preserve"
   sodipodi:docname="UCN_LOGO_RGB.svg"
   inkscape:version="1.4 (e7c3feb100, 2024-10-09)"
   xmlns:inkscape="http://www.inkscape.org/namespaces/inkscape"
   xmlns:sodipodi="http://sodipodi.sourceforge.net/DTD/sodipodi-0.dtd"
   xmlns="http://www.w3.org/2000/svg"
   xmlns:svg="http://www.w3.org/2000/svg"><defs
   id="defs3" /><sodipodi:namedview
   id="namedview3"
   pagecolor="#ffffff"
   bordercolor="#000000"
   borderopacity="0.25"
   inkscape:showpageshadow="2"
   inkscape:pageopacity="0.0"
   inkscape:pagecheckerboard="0"
   inkscape:deskcolor="#d1d1d1"
   inkscape:zoom="6.998668"
   inkscape:cx="61.940358"
   inkscape:cy="43.293953"
   inkscape:window-width="2560"
   inkscape:window-height="1371"
   inkscape:window-x="0"
   inkscape:window-y="0"
   inkscape:window-maximized="1"
   inkscape:current-layer="g3" />
<style
   type="text/css"
   id="style1">
	.st0{fill:#004250;}
</style>
<g
   id="g3">
	<path
   class="st0"
   d="m 23.393518,34.93937 c 0,2.073297 -1.658638,3.731935 -3.731936,3.731935 -2.073298,0 -3.731936,-1.658638 -3.731936,-3.731935 V 13.377074 H 8.4657748 v 21.479364 c 0,6.219893 5.0588462,11.195807 11.1958072,11.195807 6.136961,0 11.195807,-5.058846 11.195807,-11.195807 V 13.377074 h -7.463871 z"
   id="path1"
   style="fill:#000000;fill-opacity:1;stroke-width:0.829319" />
	<path
   class="st0"
   d="m 49.6,5.0009516 c -6.219893,0 -11.195807,5.0588464 -11.195807,11.1958074 v 26.206482 c 0,6.219893 5.058846,11.195807 11.195807,11.195807 6.219893,0 11.195807,-5.058846 11.195807,-11.195807 v -9.371305 h -7.463871 v 9.371305 c 0,2.073298 -1.658638,3.731936 -3.731936,3.731936 -2.073298,0 -3.731936,-1.658638 -3.731936,-3.731936 V 16.196759 c 0,-2.073298 1.658638,-3.731936 3.731936,-3.731936 2.073298,0 3.731936,1.658638 3.731936,3.731936 v 9.371305 h 7.463871 V 16.196759 C 60.795807,10.059798 55.819893,5.0009516 49.6,5.0009516 Z"
   id="path2"
   style="fill:#000000;fill-opacity:1;stroke-width:0.829319" />
	<path
   class="st0"
   d="m 79.538418,12.464823 c -6.219893,0 -11.195807,5.058846 -11.195807,11.195807 v 21.479364 h 7.463871 V 23.66063 c 0,-2.073297 1.658638,-3.731935 3.731936,-3.731935 2.073298,0 3.731936,1.658638 3.731936,3.731935 v 21.479364 h 7.463871 V 23.66063 c 0,-6.136961 -4.975914,-11.195807 -11.195807,-11.195807 z"
   id="path3"
   style="fill:#000000;fill-opacity:1;stroke-width:0.829319" />
</g>
</svg>
